<?xml version="1.0" encoding="UTF-8"?>
<svg version="1.1" xmlns="http://www.w3.org/2000/svg" width="500" height="500">
<path d="M0 0 C165 0 330 0 500 0 C500 165 500 330 500 500 C335 500 170 500 0 500 C0 335 0 170 0 0 Z " fill="#F0F0F3" transform="translate(0,0)"/>
<path d="M0 0 C2.86684866 1.54108732 5.58425987 3.28999725 8.3125 5.0625 C9.42334961 5.77116211 9.42334961 5.77116211 10.55664062 6.49414062 C12.37551219 7.65587149 14.1883659 8.82701482 16 10 C20.46273586 7.62189812 24.73125185 5.29177262 28.6875 2.125 C32 0 32 0 34.81640625 0.1171875 C38.49512141 1.13729747 41.18579133 2.81396469 44.25 5 C45.56907035 5.90935652 46.8894947 6.81675074 48.2109375 7.72265625 C48.95569336 8.23586426 49.70044922 8.74907227 50.46777344 9.27783203 C54.99359452 12.35584417 59.5836528 15.33610758 64.16864014 18.32498169 C65.88484204 19.44391685 67.60000723 20.56442575 69.31494141 21.68530273 C75.4054023 25.66453114 81.50814549 29.62399082 87.625 33.5625 C98.5063787 40.57135966 109.24447207 47.80022054 120 55 C119.67 55.99 119.34 56.98 119 58 C115.5377013 57.35494995 113.14992909 55.99155192 110.21484375 54.0703125 C109.24272949 53.43770508 108.27061523 52.80509766 107.26904297 52.15332031 C106.19025879 51.44272461 105.11147461 50.73212891 104 50 C102.81032779 49.22191897 101.62037652 48.44426451 100.43017578 47.66699219 C97.16203165 45.53011543 93.89870518 43.3859934 90.63674927 41.23968506 C87.09245346 38.90783053 83.54624713 36.57888553 80 34.25 C78.95574608 33.56416336 78.95574608 33.56416336 77.89039612 32.86447144 C71.51191899 28.67670826 65.12933438 24.49501237 58.71484375 20.36254883 C54.83364699 17.86065816 50.99050458 15.31877622 47.1875 12.69921875 C46.40882568 12.17150879 45.63015137 11.64379883 44.82788086 11.10009766 C43.36269584 10.10562247 41.90696222 9.09701405 40.46313477 8.07177734 C38.31393943 6.56556482 38.31393943 6.56556482 35 5 C31.50339617 5.70230932 29.11283109 7.47283543 26.3125 9.625 C23.21676301 12 23.21676301 12 21 12 C23.76105489 14.9368091 26.50345238 17.11278058 29.9375 19.21484375 C30.90486084 19.81200195 31.87222168 20.40916016 32.86889648 21.02441406 C33.90216064 21.65573242 34.9354248 22.28705078 36 22.9375 C38.17928642 24.28369876 40.35765829 25.63137904 42.53515625 26.98046875 C43.6245752 27.65513184 44.71399414 28.32979492 45.83642578 29.02490234 C51.22801409 32.39100432 56.55375998 35.85591503 61.86621094 39.34521484 C65.88787139 41.9856079 69.92510122 44.58682909 74.01953125 47.11328125 C74.81625244 47.61053711 75.61297363 48.10779297 76.43383789 48.62011719 C77.94016683 49.55817889 79.45340382 50.48526801 80.97436523 51.39941406 C82.984375 52.66015625 82.984375 52.66015625 86 55 C86 56.32 86 57.64 86 59 C82.91618211 58.37731013 80.69330916 57.35806433 78.05078125 55.6640625 C77.29458496 55.18291992 76.53838867 54.70177734 75.75927734 54.20605469 C74.95184082 53.68430664 74.1444043 53.16255859 73.3125 52.625 C72.03947021 51.81144043 72.03947021 51.81144043 70.74072266 50.98144531 C68.15636603 49.32726439 65.57732998 47.66510343 63 46 C62.29117676 45.54270508 61.58235352 45.08541016 60.85205078 44.61425781 C58.17904683 42.88868888 55.50762681 41.16072569 52.83911133 39.42822266 C46.41144228 35.25617362 39.95665783 31.12700565 33.5 27 C26.09439084 22.26505574 18.69262318 17.52459582 11.3125 12.75 C10.64863281 12.32074219 9.98476562 11.89148438 9.30078125 11.44921875 C8.68203125 11.04832031 8.06328125 10.64742187 7.42578125 10.234375 C6.84393066 9.86376953 6.26208008 9.49316406 5.66259766 9.11132812 C4.0232234 8.01552319 2.46843109 6.79648577 0.91796875 5.578125 C-1.89324088 3.67455346 -1.89324088 3.67455346 -4.95703125 4.4765625 C-8.39554093 6.19802434 -11.54364681 8.17657007 -14.6875 10.375 C-16.01938623 11.28467446 -17.35279247 12.19212636 -18.6875 13.09765625 C-19.38875 13.57348145 -20.09 14.04930664 -20.8125 14.53955078 C-24.55657421 17.03922176 -28.37256552 19.4229516 -32.1875 21.8125 C-38.76733429 25.94300394 -45.30696454 30.12842926 -51.8125 34.375 C-60.05776584 39.75692919 -68.34975452 45.0619379 -76.66723633 50.33154297 C-77.53759521 50.88342285 -78.4079541 51.43530273 -79.3046875 52.00390625 C-80.1203418 52.51969238 -80.93599609 53.03547852 -81.77636719 53.56689453 C-83.69848787 54.80567894 -85.57325923 56.09006547 -87.4453125 57.40234375 C-90 59 -90 59 -93 59 C-93.03125 56.83984375 -93.03125 56.83984375 -92 54 C-89.38161415 51.82928889 -86.45697272 50.22857737 -83.5 48.5625 C-81.85333516 47.60038004 -80.20749218 46.63685201 -78.5625 45.671875 C-77.77230469 45.21361328 -76.98210937 44.75535156 -76.16796875 44.28320312 C-72.84756261 42.31788165 -69.68406216 40.14651204 -66.53125 37.92578125 C-65 37 -65 37 -63 37 C-63 28.09 -63 19.18 -63 10 C-58.3284375 9.9690625 -58.3284375 9.9690625 -53.5625 9.9375 C-52.08825562 9.92384399 -52.08825562 9.92384399 -50.58422852 9.90991211 C-49.43071899 9.90616577 -49.43071899 9.90616577 -48.25390625 9.90234375 C-47.46314697 9.89710693 -46.6723877 9.89187012 -45.85766602 9.88647461 C-44 10 -44 10 -43 11 C-42.76636119 12.84891946 -42.58696365 14.70488031 -42.4375 16.5625 C-42.35371094 17.57441406 -42.26992187 18.58632812 -42.18359375 19.62890625 C-42.12300781 20.41136719 -42.06242187 21.19382813 -42 22 C-32.00692102 15.95740136 -22.08318836 9.83385599 -12.30883789 3.44213867 C-4.80742859 -1.45974552 -4.80742859 -1.45974552 0 0 Z " fill="#3B3838" transform="translate(237,184)"/>
<path d="M0 0 C3.96 0 7.92 0 12 0 C12.87720825 7.80715342 12.87720825 7.80715342 12 12 C9.10116082 15.16666672 5.88026426 17.19345074 2 19 C1.34 19 0.68 19 0 19 C0 12.73 0 6.46 0 0 Z " fill="#EEEEF1" transform="translate(178,198)"/>
<path d="M0 0 C9.625 -0.25 9.625 -0.25 13 2 C13.34406131 5.16536405 13.41617943 7.23700438 11.875 10.0625 C10.69460607 12.10070585 10.69460607 12.10070585 11.875 14.75 C12.24625 15.4925 12.6175 16.235 13 17 C10.6875 17.3125 10.6875 17.3125 8 17 C6.1875 14.5 6.1875 14.5 5 12 C4.67 13.65 4.34 15.3 4 17 C2.68 17 1.36 17 0 17 C0 11.39 0 5.78 0 0 Z " fill="#363333" transform="translate(113,249)"/>
<path d="M0 0 C1.98 0 3.96 0 6 0 C7.98 5.61 9.96 11.22 12 17 C10.35 17 8.7 17 7 17 C7 16.01 7 15.02 7 14 C4.69 14 2.38 14 0 14 C-0.33 14.99 -0.66 15.98 -1 17 C-2.32 17 -3.64 17 -5 17 C-3.83348574 11.07136283 -2.24480642 5.61201606 0 0 Z " fill="#3B3838" transform="translate(324,249)"/>
<path d="M0 0 C1.65 0 3.3 0 5 0 C7.67149708 5.60236281 9.67594074 10.93139507 11 17 C9.35 16.67 7.7 16.34 6 16 C6 15.34 6 14.68 6 14 C3.69 14 1.38 14 -1 14 C-1.33 14.99 -1.66 15.98 -2 17 C-3.32 17 -4.64 17 -6 17 C-4.33846988 11.14340094 -2.52958084 5.5409866 0 0 Z " fill="#474545" transform="translate(172,249)"/>
<path d="M0 0 C0.70125 0.00515625 1.4025 0.0103125 2.125 0.015625 C2.82625 0.01046875 3.5275 0.0053125 4.25 0 C6.125 0.265625 6.125 0.265625 8.125 2.265625 C8.125 3.255625 8.125 4.245625 8.125 5.265625 C5.36223823 4.74294034 2.7989124 4.15692913 0.125 3.265625 C0.125 4.255625 0.125 5.245625 0.125 6.265625 C1.8265625 6.7296875 1.8265625 6.7296875 3.5625 7.203125 C7.125 8.265625 7.125 8.265625 8.125 9.265625 C8.375 12.203125 8.375 12.203125 8.125 15.265625 C4.65501271 17.57894986 3.19990752 17.60520063 -0.875 17.265625 C-1.865 16.605625 -2.855 15.945625 -3.875 15.265625 C-3.875 14.275625 -3.875 13.285625 -3.875 12.265625 C-1.11223823 12.78830966 1.4510876 13.37432087 4.125 14.265625 C3.795 13.275625 3.465 12.285625 3.125 11.265625 C1.47948038 10.54834722 -0.18922289 9.88237272 -1.875 9.265625 C-3.875 7.265625 -3.875 7.265625 -4.125 4.765625 C-3.82110076 1.72663263 -3.14762524 0.44591358 0 0 Z " fill="#383535" transform="translate(268.875,248.734375)"/>
<path d="M0 0 C3.63 0 7.26 0 11 0 C11 0.99 11 1.98 11 3 C8.69 3 6.38 3 4 3 C4 4.32 4 5.64 4 7 C5.98 7 7.96 7 10 7 C10 7.99 10 8.98 10 10 C8.02 10 6.04 10 4 10 C4 11.32 4 12.64 4 14 C6.31 14 8.62 14 11 14 C11 14.99 11 15.98 11 17 C7.37 17 3.74 17 0 17 C0 11.39 0 5.78 0 0 Z " fill="#393737" transform="translate(239,249)"/>
<path d="M0 0 C3.63 0 7.26 0 11 0 C11 0.99 11 1.98 11 3 C8.69 3 6.38 3 4 3 C4 4.32 4 5.64 4 7 C5.98 7 7.96 7 10 7 C10 7.99 10 8.98 10 10 C8.02 10 6.04 10 4 10 C4 11.32 4 12.64 4 14 C6.31 14 8.62 14 11 14 C11 14.99 11 15.98 11 17 C7.37 17 3.74 17 0 17 C0 11.39 0 5.78 0 0 Z " fill="#393737" transform="translate(141,249)"/>
<path d="M0 0 C3.3 0 6.6 0 10 0 C10 0.99 10 1.98 10 3 C8.02 3 6.04 3 4 3 C4 4.32 4 5.64 4 7 C5.98 7 7.96 7 10 7 C10 7.99 10 8.98 10 10 C8.02 10 6.04 10 4 10 C4 11.32 4 12.64 4 14 C5.98 14 7.96 14 10 14 C10 14.99 10 15.98 10 17 C6.7 17 3.4 17 0 17 C0 11.39 0 5.78 0 0 Z " fill="#322F2F" transform="translate(377,249)"/>
<path d="M0 0 C4.29 0 8.58 0 13 0 C13 0.99 13 1.98 13 3 C11.68 3 10.36 3 9 3 C9 7.62 9 12.24 9 17 C7.68 17 6.36 17 5 17 C5 12.38 5 7.76 5 3 C3.35 3 1.7 3 0 3 C0 2.01 0 1.02 0 0 Z " fill="#343131" transform="translate(349,249)"/>
<path d="M0 0 C4.29 0 8.58 0 13 0 C13 0.99 13 1.98 13 3 C11.35 3 9.7 3 8 3 C8 7.62 8 12.24 8 17 C6.68 17 5.36 17 4 17 C4 12.38 4 7.76 4 3 C2.68 3 1.36 3 0 3 C0 2.01 0 1.02 0 0 Z " fill="#343131" transform="translate(292,249)"/>
<path d="M0 0 C1.32 0 2.64 0 4 0 C4 4.62 4 9.24 4 14 C5.65 14 7.3 14 9 14 C9 14.99 9 15.98 9 17 C6.03 17 3.06 17 0 17 C0 11.39 0 5.78 0 0 Z " fill="#383535" transform="translate(198,249)"/>
<path d="M0 0 C2.475 0.495 2.475 0.495 5 1 C4.67 2.32 4.34 3.64 4 5 C2.68 5 1.36 5 0 5 C0 3.35 0 1.7 0 0 Z " fill="#CECDCF" transform="translate(117,252)"/>
<path d="M0 0 C0 0.99 0 1.98 0 3 C-2.92879371 2.37240135 -5.36095629 1.41377341 -8 0 C-4.94736336 -0.98120464 -3.05263664 -0.98120464 0 0 Z " fill="#D5D4D7" transform="translate(273,260)"/>
<path d="M0 0 C0.66 0 1.32 0 2 0 C2.33 1.98 2.66 3.96 3 6 C1.68 6 0.36 6 -1 6 C-0.67 4.02 -0.34 2.04 0 0 Z " fill="#C0BFC1" transform="translate(326,254)"/>
</svg>
